<?xml version="1.0" encoding="utf-8"?>
<!-- Generator: Adobe Illustrator 25.0.0, SVG Export Plug-In . SVG Version: 6.00 Build 0)  -->
<svg version="1.1" id="Layer_1" xmlns="http://www.w3.org/2000/svg" xmlns:xlink="http://www.w3.org/1999/xlink" x="0px" y="0px"
	 viewBox="0 0 1080 1080" style="enable-background:new 0 0 1080 1080;" xml:space="preserve">
<style type="text/css">
	.st0{clip-path:url(#SVGID_2_);fill:#003DA6;}
	.st1{clip-path:url(#SVGID_4_);fill:#003DA6;}
	.st2{fill:#003DA6;}
</style>
<g>
	<defs>
		<polygon id="SVGID_1_" points="175.51,658.11 228.15,422.19 903.18,420.66 855.3,646.87 		"/>
	</defs>
	<clipPath id="SVGID_2_">
		<use xlink:href="#SVGID_1_"  style="overflow:visible;"/>
	</clipPath>
	<path class="st0" d="M224.92,508.95h49.22l-25.83,124.62h-49.22L224.92,508.95z"/>
	<path class="st0" d="M443.28,585.06c-6.46,16.58-14.84,29.67-28.97,38.75c-13.96,9.08-33.86,14.14-63.88,14.14
		c-29.85,0-84.65-2.09-71.21-66.68c13.27-64.58,69.12-66.68,98.97-66.68c30.02,0,74.36,3.67,70.87,53.24h-55.51
		c0.52-8.9-2.79-21.82-21.82-21.82c-20.25,0-34.91,9.95-40.15,35.26c-5.59,25.31,4.89,35.26,23.04,35.26
		c15.53,0,26.18-6.28,33.16-21.47H443.28z"/>
	<path class="st0" d="M727.27,504.59c29.85,0,84.65,2.09,71.39,66.68s-69.29,66.68-99.14,66.68c-29.85,0-84.65-2.09-71.21-66.68
		C641.57,506.68,697.42,504.59,727.27,504.59z M706.15,606.52c20.25,0,34.56-9.95,40.15-35.26c5.24-25.31-5.41-35.26-25.48-35.26
		c-20.25,0-34.91,9.95-40.15,35.26C675.08,596.58,685.9,606.52,706.15,606.52z"/>
	<path class="st0" d="M994.11,505.89l-26.42,128.24h-55.11l-38.73-71.87h-0.34l-14.86,71.87h-48.16l15.8-76.71
		c6.86-33.31-14.15-68.14-46.94-76.41c-85.87-21.67-138.41,12.55-149.24,18.73c-18.09,10.34-75.24,55.73-75.24,55.73l55.77,78.66
		h-41.28l-41.28-58.51l0,0c-13.45,15.76-22.68,34.71-26.83,55.06l-0.7,3.45h-50.29l26.42-128.24h50.29l-9.29,45.28l48.7-39.34
		c4.01-3.23,8.08-6.37,12.21-9.45c20.99-15.68,120.2-92.57,236.98-40.33c39.22,17.55,66.8,44.73,93.94,80.75
		c8.08,10.72,15.1,22.23,21.22,34.19l0,0h0.55l14.65-71.11H994.11z"/>
</g>
<g>
	<defs>
		<polygon id="SVGID_3_" points="883.81,502.87 852.15,648.91 1064.57,648.91 1064.57,472.23 		"/>
	</defs>
	<clipPath id="SVGID_4_">
		<use xlink:href="#SVGID_3_"  style="overflow:visible;"/>
	</clipPath>
	<path class="st1" d="M921.38,584.86h-55.33l-10.3,49.75h-49.22l25.83-124.62h49.22l-9.08,43.46h55.33l9.08-43.46h49.22L960.3,634.6
		h-49.22L921.38,584.86z"/>
</g>
<polygon class="st2" points="130.96,508.95 180.18,508.95 154.35,633.58 105.13,633.58 "/>
<polygon class="st2" points="224.92,508.95 252.66,537.6 154.35,633.58 138.69,592.09 "/>
</svg>
