<svg xmlns="http://www.w3.org/2000/svg" xmlns:xlink="http://www.w3.org/1999/xlink" version="1.1" id="Layer_1" style="enable-background:new 0 0 1080 1080;" xml:space="preserve" viewBox="145.35 450.78 788.88 192.74">
<style type="text/css">
	.st0{fill:#003DA6;}
</style>
<g>
	<g>
		<path class="st0" d="M171.69,511.99h50.19l-26.34,127.09h-50.19L171.69,511.99z"/>
		<path class="st0" d="M260.13,585.14c-23.67-3.74-30.97-17.98-27.23-35.78c7.12-32.93,40.94-41.83,82.23-41.83    c56.78,0,76.72,14.77,72.98,41.65h-58.38c1.25-5.16-1.07-8.19-5.52-10.15c-4.09-1.96-9.61-2.67-15.13-2.67    c-14.95,0-20.65,3.56-21.9,9.08c-0.71,3.56,0.36,5.87,5.16,6.59l58.2,8.9c24.38,3.74,37.56,15.49,33.28,37.02    c-6.58,31.15-34.88,45.57-91.31,45.57c-38.27,0-79.92-5.34-72.09-42.72h60.52c-0.71,4.09,0.53,7.12,3.56,9.08    c3.2,1.78,8.72,2.67,16.37,2.67c15.66,0,20.83-4.09,22.25-10.32c0.71-3.74-0.89-7.3-7.3-8.54L260.13,585.14z"/>
		<path class="st0" d="M659.99,507.54c30.44,0,86.33,2.13,72.8,67.99c-13.53,65.86-70.66,67.99-101.1,67.99    c-30.44,0-86.33-2.13-72.62-67.99C572.59,509.68,629.55,507.54,659.99,507.54z M638.45,611.49c20.65,0,35.24-10.15,40.94-35.96    c5.34-25.81-5.51-35.95-25.99-35.95c-20.65,0-35.6,10.15-40.94,35.95C606.77,601.34,617.8,611.49,638.45,611.49z"/>
	</g>
	<path class="st0" d="M934.23,512l-26.35,127.08h-54.96l-38.63-71.22h-0.34l-14.82,71.22H751.1l15.76-76.02   c6.84-33.01-14.12-67.52-46.82-75.72c-85.65-21.47-138.05,12.44-148.85,18.57c-18.05,10.24-75.04,55.22-75.04,55.22l55.62,77.95   H510.6l-41.17-57.98h0c-13.42,15.62-22.62,34.4-26.76,54.57l-0.7,3.42h-50.16L418.16,512h50.16l-9.26,44.88l48.58-38.98   c3.99-3.21,8.06-6.32,12.18-9.37c20.94-15.53,119.89-91.73,236.37-39.97c39.12,17.39,66.62,44.32,93.69,80.02   c8.06,10.63,15.06,22.03,21.16,33.89h0h0.55L886.2,512H934.23z"/>
</g>
</svg>