<?xml version="1.0" standalone="no"?>
<!DOCTYPE svg PUBLIC "-//W3C//DTD SVG 1.0//EN" "http://www.w3.org/TR/2001/REC-SVG-20010904/DTD/svg10.dtd">
<svg xmlns="http://www.w3.org/2000/svg" xmlns:xlink="http://www.w3.org/1999/xlink" id="body_1" width="1024" height="768">

<g transform="matrix(0.7111112 0 0 0.7111112 128 -0)">
	<g>
		<g>
            <path transform="matrix(1 0 0 1 50 50)"  d="M171.69 511.99L221.88 511.99L195.54001 639.07996L145.35 639.07996L171.69 511.99z" stroke="none" fill="#003DA6" fill-rule="nonzero" />
            <path transform="matrix(1 0 0 1 50 50)"  d="M260.13 585.14C 236.46 581.4 229.16 567.16003 232.90001 549.36C 240.02 516.43 273.84 507.52997 315.13 507.52997C 371.91 507.52997 391.85 522.3 388.11002 549.18L388.11002 549.18L329.73 549.18C 330.98 544.02 328.66 540.99 324.21002 539.02997C 320.12003 537.06995 314.60004 536.36 309.08002 536.36C 294.13 536.36 288.43002 539.92 287.18002 545.44C 286.47003 549 287.54 551.31 292.34003 552.03L292.34003 552.03L350.54004 560.93005C 374.92004 564.67004 388.10004 576.42004 383.82004 597.9501C 377.24005 629.1001 348.94003 643.5201 292.51004 643.5201C 254.24004 643.5201 212.59004 638.18005 220.42004 600.80005L220.42004 600.80005L280.94003 600.80005C 280.23004 604.8901 281.47003 607.92004 284.50003 609.88007C 287.70004 611.6601 293.22003 612.55005 300.87003 612.55005C 316.53003 612.55005 321.7 608.46 323.12003 602.23004C 323.83002 598.49005 322.23 594.93005 315.82004 593.69006L315.82004 593.69006L260.13 585.14z" stroke="none" fill="#003DA6" fill-rule="nonzero" />
            <path transform="matrix(1 0 0 1 50 50)"  d="M659.99 507.54C 690.43 507.54 746.32 509.67 732.79 575.53C 719.25995 641.39 662.13 643.52 631.69 643.52C 601.25 643.52 545.36 641.39 559.07 575.53C 572.59 509.68 629.55 507.54 659.99 507.54zM638.45 611.49C 659.10004 611.49 673.69 601.33997 679.39 575.52997C 684.73004 549.72 673.88 539.57996 653.4 539.57996C 632.75 539.57996 617.80005 549.73 612.46 575.52997C 606.77 601.34 617.8 611.49 638.45 611.49z" stroke="none" fill="#003DA6" fill-rule="nonzero" />
		</g>
        <path transform="matrix(1 0 0 1 50 50)"  d="M934.23 512L907.88 639.08L852.92 639.08L814.29 567.86L813.94995 567.86L799.12994 639.07996L751.1 639.07996L766.86 563.05994C 773.7 530.0499 752.74 495.53995 720.04 487.33994C 634.38995 465.86993 581.99 499.77994 571.18994 505.90994C 553.13995 516.14996 496.14993 561.12994 496.14993 561.12994L496.14993 561.12994L551.76996 639.07996L510.6 639.07996L469.43 581.1C 456.00998 596.72 446.81 615.5 442.66998 635.67L442.66998 635.67L441.96997 639.08997L391.80997 639.08997L418.16 512L468.32 512L459.06 556.88L507.64 517.9C 511.63 514.69 515.7 511.58002 519.82 508.53003C 540.76 493.00003 639.71 416.80002 756.19 468.56003C 795.31 485.95 822.81 512.88 849.88 548.58C 857.94 559.21 864.94 570.61005 871.04 582.47003L871.04 582.47003L871.58997 582.47003L886.2 512L934.23 512z" stroke="none" fill="#003DA6" fill-rule="nonzero" />
	</g>
</g>
</svg>